<?xml version="1.0" standalone="no"?>
<!DOCTYPE svg PUBLIC "-//W3C//DTD SVG 20010904//EN"
 "http://www.w3.org/TR/2001/REC-SVG-20010904/DTD/svg10.dtd">
<svg version="1.0" xmlns="http://www.w3.org/2000/svg"
 width="108.000000pt" height="112.000000pt" viewBox="0 0 108.000000 112.000000"
 preserveAspectRatio="xMidYMid meet">
<metadata>
Created by potrace 1.10, written by Peter Selinger 2001-2011
</metadata>
<g transform="translate(0.000000,112.000000) scale(0.100000,-0.100000)"
fill="#000000" stroke="none">
<path d="M394 978 l-41 -82 -101 3 -101 3 -46 -92 -46 -91 42 -80 42 -80 -41
-83 -41 -82 45 -87 45 -87 99 0 100 0 40 -80 40 -80 110 0 110 0 40 80 40 80
103 0 103 0 43 88 43 88 -41 81 -40 81 41 83 42 83 -45 85 -46 86 -99 1 -99 0
-43 82 -43 82 -107 0 -108 0 -40 -82z m281 -19 l38 -72 -39 -78 -38 -79 -93 0
-93 0 -39 77 -39 78 36 72 36 73 97 0 97 0 37 -71z m-287 -164 l39 -75 -39
-75 -39 -75 -92 0 -92 0 -39 76 -39 76 38 74 38 74 93 0 93 0 39 -75z m569 0
l37 -75 -37 -75 -37 -75 -93 0 -94 0 -38 76 -37 76 37 74 36 74 95 0 94 0 37
-75z m-284 -161 l38 -76 -38 -74 -38 -74 -95 0 -96 0 -36 74 -37 74 40 76 40
76 92 0 93 0 37 -76z m-283 -165 l38 -74 -39 -77 -39 -78 -93 0 -93 0 -38 77
-38 77 37 76 37 75 95 -1 96 -1 37 -74z m569 1 l38 -75 -38 -75 -37 -75 -95
-1 -95 -1 -37 77 -37 76 32 65 c18 35 36 69 41 75 5 6 46 10 100 10 l91 -1 37
-75z m-286 -164 l38 -74 -38 -76 -37 -76 -93 0 -92 0 -40 76 -40 76 37 74 36
74 96 0 95 0 38 -74z"/>
</g>
</svg>
