.svg
<?xml version="1.0" standalone="no"?>
<!DOCTYPE svg PUBLIC "-//W3C//DTD SVG 20010904//EN"
 "http://www.w3.org/TR/2001/REC-SVG-20010904/DTD/svg10.dtd">
<svg version="1.0" xmlns="http://www.w3.org/2000/svg"
 width="236.000000pt" height="246.000000pt" viewBox="0 0 4800 5000"
 preserveAspectRatio="xMidYMid meet">
<metadata>
Created by potrace 1.10, written by Peter Selinger 2001-2011
</metadata>
<g transform="translate(0.000000,5000.000000) scale(1.000000,-1.000000)"
fill="currentColor" stroke="currentColor">
<path d="M1630 4507 l-200 -393 -494 4 -495 4 -218 -436 -218 -436 200 -400
200 -399 -200 -401 -200 -400 218 -436 218 -435 494 5 495 6 200 -395 200
-395 540 0 540 0 200 395 200 395 494 -7 494 -6 211 421 c116 232 211 435 211
452 0 17 -87 203 -192 415 l-193 384 193 386 c105 212 192 399 192 415 0 17
-95 220 -211 451 l-210 421 -495 -4 -494 -5 -200 393 -200 394 -540 0 -540 0
-200 -393z m1386 -78 l185 -371 -186 -369 -185 -369 -460 0 -460 0 -185 369
-186 369 185 371 185 371 461 0 461 0 185 -371z m-1404 -811 l185 -368 -183
-365 -184 -365 -465 0 -465 0 -182 364 -183 365 185 370 184 371 461 -2 461
-3 186 -367z m2808 2 l184 -370 -182 -365 -182 -365 -466 0 -466 0 -182 366
-183 365 188 372 187 372 459 -3 459 -2 184 -370z m-1407 -805 l184 -365 -184
-365 -183 -365 -460 0 -460 0 -183 365 -183 364 182 365 182 366 461 0 461 0
183 -365z m-1399 -800 l183 -365 -185 -367 -185 -367 -459 0 -458 0 -188 366
-187 367 182 365 183 366 465 0 465 0 184 -365z m2808 0 l183 -365 -188 -367
-187 -367 -458 0 -459 0 -185 366 -185 367 183 365 182 366 466 0 466 0 182
-365z m-1407 -804 l186 -369 -183 -366 -182 -366 -466 0 -465 0 -183 366 -182
365 184 370 184 369 461 0 461 0 185 -369z"/>
</g>
</svg>